<mxfile host="app.diagrams.net" modified="2023-12-28T00:52:07.917Z" agent="Mozilla/5.0 (Windows NT 10.0; Win64; x64) AppleWebKit/537.36 (KHTML, like Gecko) Chrome/120.0.0.0 Safari/537.36" etag="-ua_uzJUNX0ZRRB3-uvE" version="22.1.15" type="github">
  <diagram id="C5RBs43oDa-KdzZeNtuy" name="Page-1">
    <mxGraphModel dx="1035" dy="2889" grid="1" gridSize="10" guides="1" tooltips="1" connect="1" arrows="1" fold="1" page="1" pageScale="1" pageWidth="827" pageHeight="1169" math="0" shadow="0">
      <root>
        <mxCell id="WIyWlLk6GJQsqaUBKTNV-0" />
        <mxCell id="WIyWlLk6GJQsqaUBKTNV-1" parent="WIyWlLk6GJQsqaUBKTNV-0" />
        <mxCell id="StCc9UqbNn1oiysS5yv2-9" value="" style="edgeStyle=orthogonalEdgeStyle;rounded=0;orthogonalLoop=1;jettySize=auto;html=1;" edge="1" parent="WIyWlLk6GJQsqaUBKTNV-1" source="StCc9UqbNn1oiysS5yv2-0" target="StCc9UqbNn1oiysS5yv2-1">
          <mxGeometry relative="1" as="geometry" />
        </mxCell>
        <mxCell id="StCc9UqbNn1oiysS5yv2-0" value="mulai" style="strokeWidth=2;html=1;shape=mxgraph.flowchart.terminator;whiteSpace=wrap;" vertex="1" parent="WIyWlLk6GJQsqaUBKTNV-1">
          <mxGeometry x="150" y="-2240" width="100" height="50" as="geometry" />
        </mxCell>
        <mxCell id="StCc9UqbNn1oiysS5yv2-10" value="" style="edgeStyle=orthogonalEdgeStyle;rounded=0;orthogonalLoop=1;jettySize=auto;html=1;" edge="1" parent="WIyWlLk6GJQsqaUBKTNV-1" source="StCc9UqbNn1oiysS5yv2-1" target="StCc9UqbNn1oiysS5yv2-2">
          <mxGeometry relative="1" as="geometry" />
        </mxCell>
        <mxCell id="StCc9UqbNn1oiysS5yv2-14" value="" style="edgeStyle=orthogonalEdgeStyle;rounded=0;orthogonalLoop=1;jettySize=auto;html=1;" edge="1" parent="WIyWlLk6GJQsqaUBKTNV-1" source="StCc9UqbNn1oiysS5yv2-1" target="StCc9UqbNn1oiysS5yv2-4">
          <mxGeometry relative="1" as="geometry" />
        </mxCell>
        <mxCell id="StCc9UqbNn1oiysS5yv2-1" value="Kartu?" style="strokeWidth=2;html=1;shape=mxgraph.flowchart.decision;whiteSpace=wrap;" vertex="1" parent="WIyWlLk6GJQsqaUBKTNV-1">
          <mxGeometry x="150" y="-2130" width="100" height="100" as="geometry" />
        </mxCell>
        <mxCell id="StCc9UqbNn1oiysS5yv2-11" value="" style="edgeStyle=orthogonalEdgeStyle;rounded=0;orthogonalLoop=1;jettySize=auto;html=1;" edge="1" parent="WIyWlLk6GJQsqaUBKTNV-1" source="StCc9UqbNn1oiysS5yv2-2" target="StCc9UqbNn1oiysS5yv2-5">
          <mxGeometry relative="1" as="geometry" />
        </mxCell>
        <mxCell id="StCc9UqbNn1oiysS5yv2-13" value="" style="edgeStyle=orthogonalEdgeStyle;rounded=0;orthogonalLoop=1;jettySize=auto;html=1;" edge="1" parent="WIyWlLk6GJQsqaUBKTNV-1" source="StCc9UqbNn1oiysS5yv2-2" target="StCc9UqbNn1oiysS5yv2-3">
          <mxGeometry relative="1" as="geometry" />
        </mxCell>
        <mxCell id="StCc9UqbNn1oiysS5yv2-2" value="belanja &amp;gt; 100rb" style="strokeWidth=2;html=1;shape=mxgraph.flowchart.decision;whiteSpace=wrap;" vertex="1" parent="WIyWlLk6GJQsqaUBKTNV-1">
          <mxGeometry x="316" y="-2130" width="100" height="100" as="geometry" />
        </mxCell>
        <mxCell id="StCc9UqbNn1oiysS5yv2-19" value="" style="edgeStyle=orthogonalEdgeStyle;rounded=0;orthogonalLoop=1;jettySize=auto;html=1;" edge="1" parent="WIyWlLk6GJQsqaUBKTNV-1" source="StCc9UqbNn1oiysS5yv2-3" target="StCc9UqbNn1oiysS5yv2-6">
          <mxGeometry relative="1" as="geometry" />
        </mxCell>
        <mxCell id="StCc9UqbNn1oiysS5yv2-3" value="belanja &amp;gt; 500rb" style="strokeWidth=2;html=1;shape=mxgraph.flowchart.decision;whiteSpace=wrap;" vertex="1" parent="WIyWlLk6GJQsqaUBKTNV-1">
          <mxGeometry x="316" y="-1980" width="100" height="100" as="geometry" />
        </mxCell>
        <mxCell id="StCc9UqbNn1oiysS5yv2-15" value="" style="edgeStyle=orthogonalEdgeStyle;rounded=0;orthogonalLoop=1;jettySize=auto;html=1;" edge="1" parent="WIyWlLk6GJQsqaUBKTNV-1" source="StCc9UqbNn1oiysS5yv2-4" target="StCc9UqbNn1oiysS5yv2-7">
          <mxGeometry relative="1" as="geometry" />
        </mxCell>
        <mxCell id="StCc9UqbNn1oiysS5yv2-16" value="" style="edgeStyle=orthogonalEdgeStyle;rounded=0;orthogonalLoop=1;jettySize=auto;html=1;" edge="1" parent="WIyWlLk6GJQsqaUBKTNV-1" source="StCc9UqbNn1oiysS5yv2-4" target="StCc9UqbNn1oiysS5yv2-8">
          <mxGeometry relative="1" as="geometry" />
        </mxCell>
        <mxCell id="StCc9UqbNn1oiysS5yv2-4" value="belanja &amp;gt; 100rb" style="strokeWidth=2;html=1;shape=mxgraph.flowchart.decision;whiteSpace=wrap;" vertex="1" parent="WIyWlLk6GJQsqaUBKTNV-1">
          <mxGeometry x="150" y="-1833" width="100" height="100" as="geometry" />
        </mxCell>
        <mxCell id="StCc9UqbNn1oiysS5yv2-12" value="" style="edgeStyle=orthogonalEdgeStyle;rounded=0;orthogonalLoop=1;jettySize=auto;html=1;" edge="1" parent="WIyWlLk6GJQsqaUBKTNV-1" source="StCc9UqbNn1oiysS5yv2-5" target="StCc9UqbNn1oiysS5yv2-6">
          <mxGeometry relative="1" as="geometry" />
        </mxCell>
        <mxCell id="StCc9UqbNn1oiysS5yv2-5" value="diskon = 15rb" style="rounded=1;whiteSpace=wrap;html=1;absoluteArcSize=1;arcSize=14;strokeWidth=2;" vertex="1" parent="WIyWlLk6GJQsqaUBKTNV-1">
          <mxGeometry x="500" y="-2110" width="130" height="60" as="geometry" />
        </mxCell>
        <mxCell id="StCc9UqbNn1oiysS5yv2-6" value="diskon = 50rb" style="rounded=1;whiteSpace=wrap;html=1;absoluteArcSize=1;arcSize=14;strokeWidth=2;" vertex="1" parent="WIyWlLk6GJQsqaUBKTNV-1">
          <mxGeometry x="500" y="-1960" width="130" height="60" as="geometry" />
        </mxCell>
        <mxCell id="StCc9UqbNn1oiysS5yv2-7" value="diskon = 15rb" style="rounded=1;whiteSpace=wrap;html=1;absoluteArcSize=1;arcSize=14;strokeWidth=2;" vertex="1" parent="WIyWlLk6GJQsqaUBKTNV-1">
          <mxGeometry x="301" y="-1813" width="130" height="60" as="geometry" />
        </mxCell>
        <mxCell id="StCc9UqbNn1oiysS5yv2-8" value="selesai" style="strokeWidth=2;html=1;shape=mxgraph.flowchart.terminator;whiteSpace=wrap;" vertex="1" parent="WIyWlLk6GJQsqaUBKTNV-1">
          <mxGeometry x="150" y="-1650" width="100" height="50" as="geometry" />
        </mxCell>
        <mxCell id="StCc9UqbNn1oiysS5yv2-18" value="" style="endArrow=none;html=1;rounded=0;exitX=0.5;exitY=1;exitDx=0;exitDy=0;exitPerimeter=0;" edge="1" parent="WIyWlLk6GJQsqaUBKTNV-1" source="StCc9UqbNn1oiysS5yv2-3">
          <mxGeometry width="50" height="50" relative="1" as="geometry">
            <mxPoint x="400" y="-1840" as="sourcePoint" />
            <mxPoint x="680" y="-1840" as="targetPoint" />
            <Array as="points">
              <mxPoint x="366" y="-1840" />
            </Array>
          </mxGeometry>
        </mxCell>
        <mxCell id="StCc9UqbNn1oiysS5yv2-20" value="" style="endArrow=none;html=1;rounded=0;entryX=1;entryY=0.5;entryDx=0;entryDy=0;" edge="1" parent="WIyWlLk6GJQsqaUBKTNV-1" target="StCc9UqbNn1oiysS5yv2-5">
          <mxGeometry width="50" height="50" relative="1" as="geometry">
            <mxPoint x="680" y="-1629.090909090909" as="sourcePoint" />
            <mxPoint x="490" y="-2010" as="targetPoint" />
            <Array as="points">
              <mxPoint x="680" y="-2080" />
            </Array>
          </mxGeometry>
        </mxCell>
        <mxCell id="StCc9UqbNn1oiysS5yv2-22" value="" style="endArrow=classic;html=1;rounded=0;exitX=1;exitY=0.5;exitDx=0;exitDy=0;" edge="1" parent="WIyWlLk6GJQsqaUBKTNV-1" source="StCc9UqbNn1oiysS5yv2-5">
          <mxGeometry width="50" height="50" relative="1" as="geometry">
            <mxPoint x="620" y="-2010" as="sourcePoint" />
            <mxPoint x="680" y="-2080" as="targetPoint" />
          </mxGeometry>
        </mxCell>
        <mxCell id="StCc9UqbNn1oiysS5yv2-23" value="" style="endArrow=classic;html=1;rounded=0;" edge="1" parent="WIyWlLk6GJQsqaUBKTNV-1">
          <mxGeometry width="50" height="50" relative="1" as="geometry">
            <mxPoint x="630" y="-1930" as="sourcePoint" />
            <mxPoint x="680" y="-1930" as="targetPoint" />
          </mxGeometry>
        </mxCell>
        <mxCell id="StCc9UqbNn1oiysS5yv2-24" value="" style="endArrow=none;html=1;rounded=0;exitX=1;exitY=0.5;exitDx=0;exitDy=0;exitPerimeter=0;" edge="1" parent="WIyWlLk6GJQsqaUBKTNV-1" source="StCc9UqbNn1oiysS5yv2-8">
          <mxGeometry width="50" height="50" relative="1" as="geometry">
            <mxPoint x="460" y="-1630" as="sourcePoint" />
            <mxPoint x="680" y="-1630" as="targetPoint" />
          </mxGeometry>
        </mxCell>
        <mxCell id="StCc9UqbNn1oiysS5yv2-25" value="" style="endArrow=classic;html=1;rounded=0;exitX=0.5;exitY=1;exitDx=0;exitDy=0;" edge="1" parent="WIyWlLk6GJQsqaUBKTNV-1" source="StCc9UqbNn1oiysS5yv2-7">
          <mxGeometry width="50" height="50" relative="1" as="geometry">
            <mxPoint x="290" y="-1660" as="sourcePoint" />
            <mxPoint x="366" y="-1630" as="targetPoint" />
          </mxGeometry>
        </mxCell>
      </root>
    </mxGraphModel>
  </diagram>
</mxfile>
